<?xml version="1.0" encoding="utf-8"?>
<!-- Generator: Adobe Illustrator 15.1.0, SVG Export Plug-In . SVG Version: 6.00 Build 0)  -->
<!DOCTYPE svg PUBLIC "-//W3C//DTD SVG 1.1//EN" "http://www.w3.org/Graphics/SVG/1.1/DTD/svg11.dtd">
<svg version="1.1" id="Layer_1" xmlns="http://www.w3.org/2000/svg" xmlns:xlink="http://www.w3.org/1999/xlink" x="0px" y="0px"
	 width="278px" height="192px" viewBox="-0.254 0.361 278 192" enable-background="new -0.254 0.361 278 192" xml:space="preserve">
<g enable-background="new    ">
	<path fill="#454F63" d="M43.23,15.284h0.524c6.636,5.94,9.956,10.306,9.956,13.1c0.348,7.599,0.872,12.839,1.572,15.721
		c0,0.35-0.176,0.523-0.524,0.523c4.89,20.96,7.336,36.156,7.336,45.588v6.288c0,6.639-4.368,13.624-13.1,20.96
		c-5.502,3.492-12.14,5.24-19.912,5.24c-6.638-0.612-13.624-4.28-20.96-11.004C3.58,106.808,1.31,99.998,1.31,91.264v-9.433
		c0-0.523,0.698-1.222,2.096-2.096h16.768c1.31,1.834,3.754,4.28,7.336,7.336v5.24c0,5.59,0.524,8.384,1.572,8.384h1.048
		c4.454,0,7.598-3.492,9.432-10.48v-3.668c0-3.317-2.446-18.863-7.336-46.636c-4.542,1.048-7.512,1.572-8.908,1.572h-1.572
		c-4.542-3.668-6.812-6.112-6.812-7.336l0.524-5.24L14.41,25.24c3.318-2.096,12.576-5.063,27.772-8.908
		C42.268,15.634,42.618,15.284,43.23,15.284z M18.078,26.288l0.524,2.62l-0.524,5.24c6.636-2.444,11.702-3.668,15.196-3.668
		c0.96,1.397,2.182,7.512,3.668,18.34c3.842,22.532,5.764,34.934,5.764,37.204v2.096c0,7.774-3.844,13.014-11.528,15.72h-1.572
		c0-0.348-0.176-0.523-0.524-0.523c0,0.523-0.524,1.048-1.572,1.572h-0.524c-0.438-0.61-3.058-2.358-7.86-5.24
		c-1.398-2.097-2.096-4.017-2.096-5.765V90.74c0-1.92,0.348-4.54,1.048-7.86H4.454v9.433c0,11.004,4.016,17.64,12.052,19.912
		c3.406,1.746,6.898,2.62,10.48,2.62h2.096c13.624-2.185,20.436-5.154,20.436-8.908c1.396-2.008,2.096-4.628,2.096-7.86
		c-2.184-30.392-4.978-52.748-8.384-67.072c-0.786-1.31-1.66-4.978-2.62-11.004L18.078,26.288z M19.65,91.264v0.523
		c1.048,1.136,1.572,2.01,1.572,2.62h2.62C23.842,93.71,22.444,92.662,19.65,91.264z M20.698,88.12v1.048h0.524V88.12H20.698z
		 M21.746,97.552v0.524c0.524,0,1.572,0.524,3.144,1.572V98.6c-0.262,0-1.136-0.349-2.62-1.049H21.746z M22.794,37.816v1.048h0.524
		v-1.048H22.794z M23.318,89.168c0.086,0.7,0.436,1.048,1.048,1.048v-1.048H23.318z M24.89,35.196
		c1.048,1.136,1.572,2.01,1.572,2.62h1.572v-0.524c0-0.523-0.7-1.222-2.096-2.096H24.89z M29.606,33.624v0.524
		c0,0.523,0.698,1.224,2.096,2.096v-2.62H29.606z M29.606,117.464c0,0.872,1.572,1.572,4.716,2.097h0.524v-0.524
		c-0.786,0-1.834-0.523-3.144-1.572H29.606z M37.99,116.416c0,0.524,0.524,1.048,1.572,1.572h0.524c0-0.524-0.524-1.048-1.572-1.572
		H37.99z M42.182,114.844c0,0.697,1.048,1.222,3.144,1.571c0-0.523-0.524-1.048-1.572-1.571H42.182z M44.278,20.524v1.048
		c1.31,9.782,2.706,14.672,4.192,14.672l2.62,1.572v-8.384C51.09,27.336,48.818,24.368,44.278,20.524z M50.042,49.868v0.524
		c1.746,12.664,3.144,28.21,4.192,46.636v5.24c0,2.62-2.096,6.111-6.288,10.479c4.016,0,7.684-5.065,11.004-15.196v-5.239
		c0-14.41-2.272-28.034-6.812-40.872L50.042,49.868z M48.47,39.912v0.524c0,0.962,1.048,1.66,3.144,2.096v-0.524
		C51.264,42.008,50.216,41.31,48.47,39.912z M49.518,45.152v0.523c0,0.786,0.872,1.311,2.62,1.572
		C51.962,46.55,51.09,45.852,49.518,45.152z"/>
</g>
<g enable-background="new    ">
	<path fill="#454F63" d="M41.888,67.616h0.524c4.016,0,7.684,2.796,11.004,8.384c-0.35,7.25-0.524,13.188-0.524,17.815
		c1.746,16.683,2.968,30.654,3.668,41.921c0.524,3.844,1.048,5.764,1.572,5.764c16.068-2.794,24.278-4.54,24.628-5.24h1.572
		c0.61,0,3.23,3.844,7.86,11.528c0,9.779-1.048,14.672-3.144,14.672c-10.656,1.746-21.834,3.144-33.536,4.192
		c0,0.262-3.494,1.134-10.48,2.619c-2.01-3.144-5.154-6.638-9.432-10.479v-0.524c0-27.51-2.096-55.63-6.288-84.363v-1.572
		C29.312,70.586,33.503,69.013,41.888,67.616z M32.456,73.38v0.524c4.192,29.52,6.288,57.292,6.288,83.315h0.524
		c6.898-1.748,17.728-3.144,32.488-4.191c1.484-0.96,4.278-1.484,8.384-1.572l0.524-2.62v-4.716l0.524-3.668
		c-16.768,2.62-25.152,4.542-25.152,5.764h-5.24c-1.748,0-2.796-5.764-3.144-17.292c-0.7,0-1.048-0.698-1.048-2.096
		c0.698,0,1.048-0.349,1.048-1.048c-2.01-9.082-3.582-27.248-4.716-54.496l-1.048-0.524C35.6,71.895,32.456,72.769,32.456,73.38z
		 M41.363,159.84c0,0.174,1.746,2.271,5.24,6.288c0-1.048,6.462-2.272,19.388-3.668h2.096v-1.048c-1.398,0-2.446-0.7-3.144-2.097
		v-2.619C55.335,157.393,47.476,158.441,41.363,159.84z M46.08,72.332v0.523c1.048,12.053,1.572,22.883,1.572,32.488
		c0.524,0,1.048,0.524,1.572,1.572v0.523l-1.048,1.572v0.524c0.96,0,2.008,0.35,3.144,1.048v-0.524
		c0-1.657-0.524-7.073-1.572-16.244c0-2.968,0.174-8.907,0.524-17.815c-0.35,0-1.572-1.222-3.668-3.668H46.08z M48.7,112.679v1.572
		c0,0.612,1.048,1.31,3.144,2.096v-2.096C50.881,114.252,49.833,113.727,48.7,112.679z M49.748,118.968v1.048
		c0,0.786,0.872,1.311,2.62,1.572v-3.668C51.494,118.62,50.62,118.968,49.748,118.968z M50.795,124.731v1.049
		c0.086,0.699,0.436,1.048,1.048,1.048h0.524v-2.097H50.795z M50.795,130.496v0.523h1.048v-0.523H50.795z M51.319,134.164v3.668
		l2.62-0.524v-1.571c0-0.524-0.524-1.049-1.572-1.572H51.319z M52.368,140.975v0.524h1.048v-0.524H52.368z M68.087,157.219v0.524
		c0.086,0.697,0.436,1.048,1.048,1.048h0.524c-0.35-0.612-0.524-1.486-0.524-2.62C68.436,156.258,68.087,156.607,68.087,157.219z
		 M72.279,157.219c2.096,1.396,3.144,2.794,3.144,4.192c0.698,0,1.048-0.351,1.048-1.048c-2.096-2.097-3.144-3.494-3.144-4.192
		C72.627,156.258,72.279,156.607,72.279,157.219z M75.947,155.124c2.096,1.483,3.144,3.406,3.144,5.764h2.096v-0.523
		c-1.048-2.708-2.62-4.454-4.716-5.24H75.947z M81.188,154.076c2.096,3.491,3.144,5.588,3.144,6.288
		c2.096-0.263,3.144-0.612,3.144-1.049c-0.524-1.136-1.922-3.058-4.192-5.764C82.671,153.899,81.974,154.076,81.188,154.076z
		 M83.808,142.548v7.336c1.31,0,2.706,1.748,4.192,5.24h0.524c0-0.524,0.174-2.968,0.524-7.336c-2.796-3.145-4.192-5.24-4.192-6.288
		C84.155,141.588,83.808,141.937,83.808,142.548z"/>
</g>
<g enable-background="new    ">
	<path fill="#454F63" d="M83.244,52.919c-0.216,0.576-0.504,1.44-0.936,2.593c-0.72,1.943-2.016,3.672-4.032,5.256
		c-2.017,1.584-3.889,2.448-5.761,2.448c-3.024,0-5.473-1.296-7.345-4.032c-1.8-2.376-2.664-5.185-2.664-8.425
		c0-2.952,0.72-5.904,2.16-8.784c1.512-3.097,3.456-5.257,5.904-6.553c1.296-0.648,2.232-1.296,2.809-2.017
		c0.288-0.072,0.648-0.144,1.008-0.144c0.144,0,0.72,0.144,1.584,0.432c2.448,0.937,4.464,2.521,6.048,4.824
		c1.512,2.305,2.304,4.825,2.304,7.489C84.324,48.814,83.964,51.119,83.244,52.919z M77.267,40.101c-1.152,0-2.16-0.287-2.88-0.72
		c-2.52,0.145-4.464,1.44-5.904,3.889c-1.224,2.16-1.8,4.681-1.8,7.488c0,2.232,0.504,4.032,1.584,5.473
		c1.08,1.584,2.448,2.304,4.177,2.304c1.872,0,3.6-1.367,5.328-4.104c1.584-2.521,2.376-4.969,2.376-7.345
		C80.147,43.702,79.139,41.398,77.267,40.101z"/>
	<path fill="#454F63" d="M116.436,52.703c-0.288,2.521-0.576,5.761-1.008,9.648c-0.144,0.721-0.432,1.152-1.008,1.152
		c-0.792,0-1.512-0.36-2.088-1.008c-0.576-0.72-0.864-1.44-0.864-2.232c0.072-1.008,0.216-2.592,0.504-4.608l1.224-12.169
		c-6.84,4.896-11.593,9.937-14.185,15.121c-0.432,1.008-0.792,1.944-1.224,2.881c-0.504,1.008-0.864,1.584-1.152,1.584
		c-1.44,0-2.376-0.864-2.952-2.593c-0.864-2.592-1.296-5.904-1.296-10.081c0-4.392,0.72-10.297,2.304-17.713
		c0.144-0.721,0.432-1.152,1.008-1.152c0.792,0,1.512,0.432,2.232,1.152c0.576,0.792,0.864,1.656,0.864,2.521
		c-0.144,0.72-0.36,1.512-0.576,2.52c-1.152,4.969-1.656,10.369-1.656,16.201c5.688-7.416,11.449-12.889,17.354-16.417
		c0.864,0.072,1.584,0.432,2.232,1.008c0.648,0.721,1.008,1.44,1.008,2.16C117.156,43.918,116.868,47.951,116.436,52.703z"/>
	<path fill="#454F63" d="M148.907,46.295c-1.08,3.023-1.584,6.265-1.584,9.576c0,1.225,0.072,2.448,0.36,3.601
		c0.432,2.16,0.72,3.24,0.72,3.385c0,1.368-0.792,2.088-2.304,2.088c-1.44,0-2.232-1.225-2.449-3.528
		c-0.144-1.225-0.359-3.168-0.647-5.833c-3.96,4.753-7.777,7.129-11.449,7.129c-1.944,0-3.6-0.864-4.968-2.736
		c-1.368-1.584-2.016-3.456-2.016-5.544c0-3.312,1.44-6.769,4.464-10.514c0.576-0.72,1.656-1.872,3.168-3.312
		c4.752-4.32,8.712-6.48,12.024-6.48c0.721,0,1.513,0.359,2.305,0.936c0.721,0.648,1.152,1.368,1.152,2.16
		c0,0.145-0.072,0.504-0.217,1.008c0.576,1.44,0.865,3.097,0.865,4.896c0.575,0.721,0.863,1.368,0.863,1.872
		C149.195,45.286,149.05,45.719,148.907,46.295z M142.355,39.166c-0.937,0-2.449,0.792-4.465,2.304
		c-1.873,1.368-3.384,2.736-4.537,4.104c-3.024,3.385-4.464,6.265-4.464,8.641c0,2.521,0.936,3.745,2.952,3.745
		c2.736,0,5.4-1.656,8.137-5.113c2.736-3.456,4.176-6.696,4.176-9.864C144.154,40.462,143.506,39.166,142.355,39.166z"/>
	<path fill="#454F63" d="M178.138,39.309h-1.009c-0.647-0.144-1.224-0.432-1.656-1.008c-0.72,0-2.16,0-4.464-0.072
		c-2.377,0-3.816-0.071-4.249-0.071c-1.655,7.272-2.521,11.089-2.521,11.448c-0.863,4.393-1.367,8.281-1.367,11.665
		c0.647,0.576,1.008,1.225,1.008,2.16c0,0.576-0.288,1.08-0.792,1.513c-0.576,0.432-1.08,0.72-1.585,0.72
		c-1.871,0-2.736-1.8-2.736-5.256c0-2.232,0.433-5.688,1.369-10.441l2.304-11.665c-2.304,0-3.456-0.792-3.456-2.521
		c0-1.512,1.512-2.304,4.536-2.304c0.937-4.248,2.593-10.513,4.896-18.865c0.36-1.225,1.009-1.873,1.872-1.873
		c1.584,0,2.377,0.864,2.377,2.521c0,0.36-0.145,0.864-0.433,1.513c-0.433,1.008-0.937,2.808-1.513,5.328
		c-1.151,4.464-2.088,8.209-2.736,11.305c0.217,0,1.225,0,2.953,0c1.729,0.072,2.809,0.072,3.385,0.072c3.6,0,5.4,1.08,5.4,3.097
		C179.722,37.437,179.146,38.302,178.138,39.309z"/>
	<path fill="#454F63" d="M207.8,64.584c-2.376,0-3.672-2.592-3.816-7.633l-0.504-12.745c-6.84,4.608-11.377,9.073-13.681,13.466
		c-0.576,1.151-1.08,2.231-1.513,3.312c-0.791,1.729-1.367,2.665-1.728,2.665c-0.864,0-1.585-0.36-2.232-1.08
		c-0.647-0.721-0.937-1.44-0.937-2.232c0-0.145,0-0.576,0.145-1.296c0-0.721,0.072-1.152,0.072-1.297c0-0.144,0-0.792,0-1.8
		c-0.072-0.864-0.072-1.512-0.072-1.8c0-4.896,0.504-10.801,1.584-17.642c0-0.433,0.936-5.904,2.809-16.346l1.367-8.064
		c0.289-1.584,0.505-2.521,0.648-2.881c0.217-0.575,0.576-0.936,1.08-0.936c0.721,0,1.44,0.432,2.017,1.224
		c0.575,0.864,0.864,1.729,0.864,2.593c0,0.216-0.36,2.088-1.008,5.616c-2.881,14.401-4.682,25.851-5.545,34.419
		c2.305-2.809,5.328-5.761,9.072-8.856c4.248-3.456,7.129-5.185,8.569-5.185c0.864,0,1.584,0.432,2.231,1.224
		c0.576,0.864,0.865,1.729,0.865,2.736c0,0.504-0.072,1.513-0.217,3.024c-0.145,1.584-0.145,2.809-0.145,3.601
		c0,2.232,0.145,5.544,0.576,10.009c0.145,1.152,0.289,2.664,0.576,4.608C208.88,64.152,208.521,64.584,207.8,64.584z"/>
	<path fill="#454F63" d="M240.631,46.295c-1.08,3.023-1.584,6.265-1.584,9.576c0,1.225,0.072,2.448,0.36,3.601
		c0.432,2.16,0.72,3.24,0.72,3.385c0,1.368-0.792,2.088-2.304,2.088c-1.44,0-2.232-1.225-2.449-3.528
		c-0.144-1.225-0.359-3.168-0.647-5.833c-3.96,4.753-7.776,7.129-11.449,7.129c-1.944,0-3.601-0.864-4.968-2.736
		c-1.369-1.584-2.017-3.456-2.017-5.544c0-3.312,1.44-6.769,4.464-10.514c0.576-0.72,1.656-1.872,3.169-3.312
		c4.753-4.32,8.712-6.48,12.024-6.48c0.721,0,1.513,0.359,2.305,0.936c0.721,0.648,1.152,1.368,1.152,2.16
		c0,0.145-0.072,0.504-0.217,1.008c0.576,1.44,0.865,3.097,0.865,4.896c0.575,0.721,0.863,1.368,0.863,1.872
		C240.919,45.286,240.775,45.719,240.631,46.295z M234.08,39.166c-0.937,0-2.449,0.792-4.465,2.304
		c-1.873,1.368-3.385,2.736-4.537,4.104c-3.023,3.385-4.464,6.265-4.464,8.641c0,2.521,0.937,3.745,2.952,3.745
		c2.736,0,5.4-1.656,8.137-5.113c2.736-3.456,4.176-6.696,4.176-9.864C235.878,40.462,235.231,39.166,234.08,39.166z"/>
	<path fill="#454F63" d="M273.031,52.703c-0.288,2.521-0.576,5.761-1.008,9.648c-0.145,0.721-0.432,1.152-1.008,1.152
		c-0.793,0-1.513-0.36-2.089-1.008c-0.575-0.72-0.864-1.44-0.864-2.232c0.072-1.008,0.217-2.592,0.504-4.608l1.225-12.169
		c-6.84,4.896-11.593,9.937-14.186,15.121c-0.432,1.008-0.791,1.944-1.224,2.881c-0.505,1.008-0.864,1.584-1.152,1.584
		c-1.44,0-2.376-0.864-2.952-2.593c-0.864-2.592-1.296-5.904-1.296-10.081c0-4.392,0.72-10.297,2.304-17.713
		c0.145-0.721,0.432-1.152,1.008-1.152c0.793,0,1.513,0.432,2.232,1.152c0.576,0.792,0.864,1.656,0.864,2.521
		c-0.144,0.72-0.36,1.512-0.575,2.52c-1.152,4.969-1.656,10.369-1.656,16.201c5.688-7.416,11.448-12.889,17.354-16.417
		c0.863,0.072,1.584,0.432,2.231,1.008c0.648,0.721,1.009,1.44,1.009,2.16C273.751,43.918,273.462,47.951,273.031,52.703z"/>
</g>
<g enable-background="new    ">
	<path fill="#454F63" d="M81.172,133.208c-5.616,0-9.648-2.664-12.097-7.993c-0.576,0.145-1.296,0.216-2.016,0.216
		c-2.521,0-4.537-0.432-5.977-1.367c-1.8-1.009-2.665-2.089-2.665-3.241c0-1.584,0.72-2.376,2.16-2.376
		c0.216,0,0.936,0.433,2.16,1.296c1.224,0.793,2.448,1.152,3.672,1.152c0.432,0,0.936,0,1.368-0.072
		c-0.216-1.151-0.288-2.231-0.288-3.312c0-3.457,0.864-6.841,2.592-10.081c1.944-3.673,4.393-5.545,7.345-5.545
		c1.8,0,3.601,1.009,5.473,2.881c1.296,1.439,2.016,3.096,2.016,4.968c0,2.881-1.224,5.617-3.601,8.354
		c-2.16,2.52-4.824,4.464-7.993,5.832c1.44,3.024,3.672,4.536,6.841,4.536c0.648,0,1.656-0.071,3.024-0.359
		c1.296-0.145,2.088-0.217,2.448-0.217c0.576,0,1.008,0.288,1.44,0.792c0.432,0.576,0.648,1.081,0.648,1.656
		C87.725,132.199,85.493,133.208,81.172,133.208z M79.516,107.718c-0.792-0.648-1.584-1.008-2.376-1.008
		c-1.44,0-2.664,1.151-3.672,3.312c-1.008,2.16-1.512,4.465-1.512,6.769c0,0.864,0.072,1.872,0.216,2.881
		c2.304-1.009,4.32-2.377,5.977-4.177c1.656-1.656,2.52-3.456,2.52-5.4C80.668,109.229,80.236,108.437,79.516,107.718z"/>
	<path fill="#454F63" d="M117.676,122.982c-2.304,2.809-5.185,5.185-8.785,7.201c-1.944,1.08-4.104,2.016-6.409,2.736
		c-2.448,0.72-4.176,1.152-5.329,1.152c-1.8,0-2.88-0.792-3.312-2.377c0.144-0.863,0.792-1.656,2.016-2.376
		c-0.288-3.168-0.432-6.48-0.432-9.937c0-12.313,1.152-24.482,3.6-36.508c0.72-3.672,1.8-5.544,3.168-5.544
		c1.584,0,2.376,1.08,2.376,3.168c0,0.864-0.216,2.305-0.576,4.177c-0.36,2.16-0.72,3.672-1.008,4.393
		c-0.36,0.863-0.864,1.439-1.44,1.728c-1.008,5.977-1.656,14.474-2.088,25.562c5.617-6.984,10.369-10.513,14.401-10.513
		c2.304,0,4.176,0.792,5.473,2.376c1.296,1.584,1.944,3.601,1.944,6.049C121.276,117.078,120.052,119.959,117.676,122.982z
		 M113.5,110.525c-1.296,0-3.024,0.864-5.041,2.521c-3.24,2.593-5.761,5.616-7.633,9.217c-0.576,1.152-0.864,2.232-0.864,3.168
		c0,1.009,0,2.232,0.144,3.673c3.745-0.864,7.345-2.736,10.945-5.473c4.032-3.096,6.12-6.192,6.12-9.289
		C117.171,111.822,115.947,110.525,113.5,110.525z"/>
	<path fill="#454F63" d="M150.939,107.718c-1.296,0.576-2.232,0.864-2.952,0.864c-0.144,0-0.576-0.145-1.44-0.433
		c-6.191,2.881-9.937,8.857-11.088,18.074c-0.648,4.824-1.44,7.272-2.376,7.272c-0.792,0-1.44-0.504-2.016-1.368
		s-0.864-1.656-0.864-2.664c0.144-0.721,0.432-1.944,0.792-3.745c0.36-2.16,0.576-4.176,0.576-6.048c0-2.089-0.288-4.177-0.72-6.265
		c-0.864-0.864-1.296-1.872-1.44-2.881c-0.36-1.943-0.504-3.528-0.504-4.68c0-0.433,0.144-0.937,0.504-1.513
		c0.288-0.576,0.576-0.864,0.936-0.864c1.584,0,2.665,1.368,3.24,3.961c0.576,2.736,1.008,4.752,1.296,6.192
		c1.728-3.24,3.96-5.977,6.84-8.209c2.736-2.16,5.545-3.24,8.425-3.24c0.72,0,1.44,0.36,2.16,1.08
		c0.576,0.721,0.864,1.513,0.937,2.305C153.244,106.349,152.451,107.069,150.939,107.718z"/>
	<path fill="#454F63" d="M176.859,121.974c-0.217,0.576-0.504,1.44-0.937,2.593c-0.72,1.943-2.017,3.672-4.032,5.256
		c-2.017,1.584-3.889,2.448-5.761,2.448c-3.024,0-5.473-1.296-7.345-4.032c-1.8-2.376-2.664-5.185-2.664-8.425
		c0-2.952,0.721-5.904,2.16-8.784c1.512-3.097,3.456-5.257,5.904-6.553c1.297-0.648,2.232-1.296,2.809-2.017
		c0.288-0.072,0.648-0.144,1.008-0.144c0.145,0,0.721,0.144,1.584,0.432c2.449,0.937,4.465,2.521,6.049,4.824
		c1.512,2.305,2.305,4.825,2.305,7.489C177.939,117.87,177.579,120.175,176.859,121.974z M170.882,109.157
		c-1.152,0-2.16-0.287-2.881-0.72c-2.52,0.145-4.465,1.44-5.904,3.889c-1.225,2.16-1.801,4.681-1.801,7.488
		c0,2.232,0.504,4.032,1.584,5.473c1.08,1.584,2.449,2.304,4.178,2.304c1.871,0,3.6-1.367,5.328-4.104
		c1.584-2.521,2.376-4.969,2.376-7.345C173.762,112.758,172.753,110.454,170.882,109.157z"/>
	<path fill="#454F63" d="M210.05,121.759c-0.288,2.521-0.576,5.761-1.008,9.648c-0.145,0.721-0.432,1.152-1.008,1.152
		c-0.793,0-1.513-0.36-2.089-1.008c-0.575-0.72-0.864-1.44-0.864-2.232c0.072-1.008,0.217-2.592,0.504-4.608l1.225-12.169
		c-6.84,4.896-11.593,9.937-14.186,15.121c-0.432,1.008-0.791,1.944-1.224,2.881c-0.505,1.008-0.864,1.584-1.152,1.584
		c-1.44,0-2.376-0.864-2.952-2.593c-0.864-2.592-1.296-5.904-1.296-10.081c0-4.392,0.72-10.297,2.304-17.713
		c0.145-0.721,0.432-1.152,1.008-1.152c0.793,0,1.513,0.432,2.232,1.152c0.576,0.792,0.864,1.656,0.864,2.521
		c-0.144,0.72-0.36,1.512-0.575,2.52c-1.152,4.969-1.656,10.369-1.656,16.201c5.688-7.416,11.448-12.889,17.354-16.417
		c0.863,0.072,1.584,0.432,2.231,1.008c0.647,0.721,1.009,1.44,1.009,2.16C210.771,112.973,210.482,117.007,210.05,121.759z"/>
</g>
</svg>
